# xmcd
#
# Track frame offsets:
#	150
#	19362
#	37589
#	49480
#	68973
#	83001
#	99519
#	116051
#	135898
#	152125
#	166741
#	179543
#	196316
#	215350
#
# Disc length: 3149 seconds
#
# Revision: 1
# Processed by: cddbd v1.5.2PL0 Copyright (c) Steve Scherf et al.
# Submitted via: audiograbber 1.83.01
#
DISCID=b60c4b0e
DTITLE=Sara Evans - Words
DYEAR=2017
DGENRE=Country
TTITLE0=Long Way Down
TTITLE1=Marquee Sign
TTITLE2=Diving in Deep
TTITLE3=All the Love You Left Me
TTITLE4=Like the Way You Love Me
TTITLE5=Rain and Fire
TTITLE6=Night Light
TTITLE7=I Need a River
TTITLE8=I Don't Trust Myself
TTITLE9=Make Room at the Bottom
TTITLE10=Words
TTITLE11=I Want You
TTITLE12=Letting You Go
TTITLE13=A Little Bit Stronger (Acoustic Version)
EXTD=
EXTT0=
EXTT1=
EXTT2=
EXTT3=
EXTT4=
EXTT5=
EXTT6=
EXTT7=
EXTT8=
EXTT9=
EXTT10=
EXTT11=
EXTT12=
EXTT13=
PLAYORDER=
